<svg width="13" height="13" viewBox="0 0 13 13" fill="none" xmlns="http://www.w3.org/2000/svg">
<path d="M7.20313 9.54688C7.20313 9.68594 7.16189 9.82188 7.08463 9.93751C7.00737 10.0531 6.89756 10.1433 6.76908 10.1965C6.6406 10.2497 6.49922 10.2636 6.36283 10.2365C6.22644 10.2094 6.10115 10.1424 6.00282 10.0441C5.90448 9.94573 5.83752 9.82044 5.81039 9.68405C5.78326 9.54765 5.79718 9.40628 5.8504 9.2778C5.90362 9.14932 5.99374 9.03951 6.10937 8.96225C6.225 8.88499 6.36094 8.84375 6.5 8.84375C6.68648 8.84375 6.86533 8.91783 6.99719 9.04969C7.12905 9.18155 7.20313 9.36039 7.20313 9.54688ZM6.5 3.21875C5.20742 3.21875 4.15625 4.16504 4.15625 5.32812V5.5625C4.15625 5.68682 4.20564 5.80605 4.29355 5.89396C4.38145 5.98186 4.50068 6.03125 4.625 6.03125C4.74932 6.03125 4.86855 5.98186 4.95646 5.89396C5.04437 5.80605 5.09375 5.68682 5.09375 5.5625V5.32812C5.09375 4.68359 5.72481 4.15625 6.5 4.15625C7.2752 4.15625 7.90625 4.68359 7.90625 5.32812C7.90625 5.97266 7.2752 6.5 6.5 6.5C6.37568 6.5 6.25645 6.54939 6.16855 6.63729C6.08064 6.7252 6.03125 6.84443 6.03125 6.96875V7.4375C6.03125 7.56182 6.08064 7.68105 6.16855 7.76896C6.25645 7.85686 6.37568 7.90625 6.5 7.90625C6.62432 7.90625 6.74355 7.85686 6.83146 7.76896C6.91937 7.68105 6.96875 7.56182 6.96875 7.4375V7.39531C8.0375 7.19902 8.84375 6.34648 8.84375 5.32812C8.84375 4.16504 7.79258 3.21875 6.5 3.21875ZM12.5938 6.5C12.5938 7.70523 12.2364 8.88339 11.5668 9.88551C10.8972 10.8876 9.94547 11.6687 8.83198 12.1299C7.71849 12.5911 6.49324 12.7118 5.31117 12.4767C4.1291 12.2415 3.0433 11.6612 2.19107 10.8089C1.33884 9.95671 0.758471 8.8709 0.523342 7.68883C0.288214 6.50676 0.40889 5.28151 0.870112 4.16802C1.33133 3.05454 2.11238 2.10282 3.1145 1.43323C4.11661 0.763642 5.29477 0.40625 6.5 0.40625C8.11564 0.407956 9.66462 1.05052 10.807 2.19295C11.9495 3.33538 12.592 4.88436 12.5938 6.5ZM11.6563 6.5C11.6563 5.48019 11.3538 4.48328 10.7873 3.63534C10.2207 2.7874 9.4154 2.12651 8.47321 1.73625C7.53103 1.34598 6.49428 1.24387 5.49407 1.44283C4.49385 1.64178 3.5751 2.13287 2.85398 2.85398C2.13287 3.5751 1.64178 4.49385 1.44283 5.49407C1.24387 6.49428 1.34598 7.53103 1.73625 8.47321C2.12651 9.41539 2.7874 10.2207 3.63534 10.7873C4.48328 11.3538 5.48019 11.6562 6.5 11.6562C7.86705 11.6547 9.17766 11.111 10.1443 10.1443C11.111 9.17766 11.6547 7.86705 11.6563 6.5Z" fill="white"/>
</svg>
